<?xml version="1.0" encoding="utf-8"?>
<!-- Generator: Adobe Illustrator 23.0.0, SVG Export Plug-In . SVG Version: 6.00 Build 0)  -->
<svg version="1.1" id="图层_1" xmlns="http://www.w3.org/2000/svg" xmlns:xlink="http://www.w3.org/1999/xlink" x="0px" y="0px"
	 viewBox="0 0 16.1 14.5" style="enable-background:new 0 0 16.1 14.5;" xml:space="preserve" width="15px" height="15px">
<style type="text/css">
	.st0{fill:#30404F;}
</style>
<g>
	<g>
		<path class="st0" d="M15.7,8.4L8.4,2.7c-0.2-0.2-0.5-0.2-0.7,0L0.3,8.4c-0.1,0.1-0.2,0-0.2-0.1V6.4c0-0.2,0.1-0.4,0.3-0.6l7.3-5.6
			C7.9,0,8.2,0,8.4,0.2l7.3,5.6c0.2,0.1,0.3,0.3,0.3,0.6v1.9C15.9,8.4,15.8,8.5,15.7,8.4z M13.9,8.8v5.3c0,0.1-0.1,0.2-0.2,0.2h-3.6
			c-0.1,0-0.2-0.1-0.2-0.2v-3.4c0-0.2-0.1-0.3-0.3-0.3H6.4c-0.2,0-0.3,0.1-0.3,0.3v3.4c0,0.1-0.1,0.2-0.2,0.2H2.3
			c-0.1,0-0.2-0.1-0.2-0.2V8.8c0-0.3,0.1-0.5,0.3-0.7l5.2-3.9C7.9,4,8.2,4,8.4,4.2l5.2,3.9C13.8,8.2,13.9,8.5,13.9,8.8z"/>
	</g>
</g>
</svg>
