<?xml version="1.0" encoding="utf-8"?>
<!-- Generator: Adobe Illustrator 23.0.0, SVG Export Plug-In . SVG Version: 6.00 Build 0)  -->
<svg version="1.1" id="图层_1" xmlns="http://www.w3.org/2000/svg" xmlns:xlink="http://www.w3.org/1999/xlink" x="0px" y="0px"
	 viewBox="0 0 200.8 200.7" style="enable-background:new 0 0 200.8 200.7;" xml:space="preserve">
<path d="M1310.3,369.9"/>
<g>
	<path d="M27.7,71.9l72.6-36.3c0.3-0.1,0.6-0.1,0.9,0l72.6,36.3c0.8,0.4,0.8,1.4,0,1.8L101.2,110c-0.3,0.1-0.6,0.1-0.9,0L27.7,73.7
		C27,73.4,27,72.3,27.7,71.9z"/>
	<path d="M47.8,94.4l52.6,26.3c0.3,0.1,0.6,0.1,0.9,0l52.6-26.3c0.3-0.1,0.6-0.1,0.9,0l19.1,9.6c0.8,0.4,0.8,1.4,0,1.8l-72.6,36.3
		c-0.3,0.1-0.6,0.1-0.9,0l-72.6-36.3c-0.8-0.4-0.8-1.4,0-1.8l19.1-9.6C47.1,94.3,47.5,94.3,47.8,94.4z"/>
	<path d="M47.8,126.5l52.6,26.3c0.3,0.1,0.6,0.1,0.9,0l52.6-26.3c0.3-0.1,0.6-0.1,0.9,0l19.1,9.6c0.8,0.4,0.8,1.4,0,1.8l-72.6,36.3
		c-0.3,0.1-0.6,0.1-0.9,0l-72.6-36.3c-0.8-0.4-0.8-1.4,0-1.8l19.1-9.6C47.1,126.4,47.5,126.4,47.8,126.5z"/>
</g>
</svg>
