<?xml version="1.0" encoding="utf-8"?>
<!-- Generator: Adobe Illustrator 23.0.0, SVG Export Plug-In . SVG Version: 6.00 Build 0)  -->
<svg version="1.1" id="图层_1" xmlns="http://www.w3.org/2000/svg" xmlns:xlink="http://www.w3.org/1999/xlink" x="0px" y="0px"
	 viewBox="0 0 16.6 15.6" style="enable-background:new 0 0 16.6 15.6;" xml:space="preserve" width="15px" height="15px">
<style type="text/css">
	.st0{fill:#30404F;}
</style>
<path d="M1310.3,369.9"/>
<g>
	<path class="st0" d="M0.3,4.1l7.8-3.9c0,0,0.1,0,0.1,0L16,4.1c0.1,0,0.1,0.2,0,0.2L8.2,8.2c0,0-0.1,0-0.1,0L0.3,4.3
		C0.2,4.3,0.2,4.1,0.3,4.1z"/>
	<path class="st0" d="M2.4,6.5l5.7,2.8c0,0,0.1,0,0.1,0l5.7-2.8c0,0,0.1,0,0.1,0l2.1,1c0.1,0,0.1,0.2,0,0.2l-7.8,3.9
		c0,0-0.1,0-0.1,0L0.3,7.8c-0.1,0-0.1-0.2,0-0.2L2.4,6.5C2.4,6.5,2.4,6.5,2.4,6.5z"/>
	<path class="st0" d="M2.4,10l5.7,2.8c0,0,0.1,0,0.1,0l5.7-2.8c0,0,0.1,0,0.1,0l2.1,1c0.1,0,0.1,0.2,0,0.2l-7.8,3.9c0,0-0.1,0-0.1,0
		l-7.8-3.9c-0.1,0-0.1-0.2,0-0.2L2.4,10C2.4,10,2.4,10,2.4,10z"/>
</g>
</svg>
