<?xml version="1.0" encoding="utf-8"?>
<!-- Generator: Adobe Illustrator 23.0.0, SVG Export Plug-In . SVG Version: 6.00 Build 0)  -->
<svg version="1.1" id="图层_1" xmlns="http://www.w3.org/2000/svg" xmlns:xlink="http://www.w3.org/1999/xlink" x="0px" y="0px"
	 viewBox="0 0 200.8 200.3" style="enable-background:new 0 0 200.8 200.3;" xml:space="preserve">
<g>
	<g>
		<path d="M26.1,34.9v134.8c0,2.9,2.1,5.4,4.9,5.9l83.4,15.5c0.7,0.1,1.3-0.4,1.3-1.1V9.7c0-0.7-0.7-1.3-1.4-1.1L30.7,29
			C28,29.7,26.1,32.1,26.1,34.9z M105.5,106.4c0,0.5-0.4,0.9-0.8,1l-7.1,1.3c-0.2,0-0.4,0-0.5-0.1s-0.2-0.3-0.2-0.5V91.9
			c0-0.2,0.1-0.4,0.2-0.5c0.2-0.1,0.4-0.1,0.6-0.1l7.1,1.8c0.4,0.1,0.8,0.5,0.8,1L105.5,106.4L105.5,106.4L105.5,106.4z"/>
	</g>
	<path d="M133,173.5c0,0.7,0.6,1.2,1.2,1.2l34.8,0c3,0,5.4-2.4,5.4-5.4l0.1-138.8c0-3-2.4-5.4-5.4-5.4h-34.9c-0.7,0-1.2,0.6-1.2,1.2
		L133,173.5L133,173.5z"/>
	<path d="M89.2,100"/>
</g>
</svg>
