<?xml version="1.0" encoding="utf-8"?>
<!-- Generator: Adobe Illustrator 23.0.0, SVG Export Plug-In . SVG Version: 6.00 Build 0)  -->
<svg version="1.1" id="图层_1" xmlns="http://www.w3.org/2000/svg" xmlns:xlink="http://www.w3.org/1999/xlink" x="0px" y="0px"
	 viewBox="0 0 16.8 20" style="enable-background:new 0 0 16.8 20;" xml:space="preserve" width="15px" height="15px">
<style type="text/css">
	.st0{fill:#30404F;}
</style>
<g>
	<g>
		<path class="st0" d="M0.3,3v14.4c0,0.3,0.2,0.6,0.5,0.6l8.9,1.7c0.1,0,0.1,0,0.1-0.1V0.3c0-0.1-0.1-0.1-0.1-0.1L0.8,2.3
			C0.5,2.4,0.3,2.7,0.3,3z M8.8,10.6c0,0.1,0,0.1-0.1,0.1l-0.8,0.1c0,0,0,0-0.1,0c0,0,0,0,0-0.1V9c0,0,0,0,0-0.1c0,0,0,0,0.1,0
			l0.8,0.2c0,0,0.1,0.1,0.1,0.1L8.8,10.6L8.8,10.6L8.8,10.6z"/>
	</g>
	<path class="st0" d="M11.7,17.7c0,0.1,0.1,0.1,0.1,0.1h3.7c0.3,0,0.6-0.3,0.6-0.6l0-14.8c0-0.3-0.3-0.6-0.6-0.6h-3.7
		c-0.1,0-0.1,0.1-0.1,0.1L11.7,17.7L11.7,17.7z"/>
	<path class="st0" d="M7.1,9.9"/>
</g>
</svg>
