<?xml version="1.0" encoding="utf-8"?>
<!-- Generator: Adobe Illustrator 23.0.0, SVG Export Plug-In . SVG Version: 6.00 Build 0)  -->
<svg version="1.1" id="图层_1" xmlns="http://www.w3.org/2000/svg" xmlns:xlink="http://www.w3.org/1999/xlink" x="0px" y="0px"
	 viewBox="0 0 12.2 16.2" style="enable-background:new 0 0 12.2 16.2;" xml:space="preserve" width="15px" height="15px">
<style type="text/css">
	.st0{fill:#30404F;}
</style>
<g>
	<path class="st0" d="M4.1,7.9v7.9c0,0,0,0.1,0.1,0l7.8-2.3c0,0,0,0,0,0v-3.5c0,0,0,0,0,0L4.1,7.9C4.1,7.8,4.1,7.9,4.1,7.9z"/>
	<path class="st0" d="M0.2,14.7l3.4,1.2c0.1,0,0.1,0,0.1-0.1V8c0,0,0-0.1-0.1,0L0.2,9.2c0,0-0.1,0-0.1,0.1L0.2,14.7
		C0.2,14.7,0.2,14.7,0.2,14.7z"/>
	<g>
		<path class="st0" d="M6.5,0.3L1.1,4.2C1,4.2,1,4.3,1,4.4v3.9c0,0.1,0.1,0.1,0.1,0.1L4,7.3c0.1,0,0.1,0,0.2,0L6.5,8
			c0.1,0,0.2,0,0.2-0.1V0.4C6.7,0.3,6.6,0.2,6.5,0.3z M1.6,5.2L6,1.9v0.9L1.6,5.8V5.2z M6,4.8C6,4.8,6,4.8,6,4.8L1.7,7.1
			c0,0,0,0,0,0V6.3v0L6,3.6c0,0,0,0,0,0C6,3.6,6,4.8,6,4.8z"/>
		<path class="st0" d="M11.3,4.1l-4.1-4C7.1,0,7,0.1,7,0.2V8C7,8,7,8.1,7.1,8.1l4.2,1.3c0,0,0.1,0,0.1-0.1V4.2
			C11.3,4.2,11.3,4.1,11.3,4.1z M10.8,8L7.7,6.3v-1l3.1,2.1V8z M10.8,6.8L7.7,4.6V3.7l3.1,2.5V6.8z M10.8,5.7L7.7,2.9V2l3.1,3.1V5.7
			z"/>
	</g>
	<path class="st0" d="M6.7,8"/>
</g>
</svg>
