<?xml version="1.0" encoding="utf-8"?>
<!-- Generator: Adobe Illustrator 23.0.0, SVG Export Plug-In . SVG Version: 6.00 Build 0)  -->
<svg version="1.1" id="图层_1" xmlns="http://www.w3.org/2000/svg" xmlns:xlink="http://www.w3.org/1999/xlink" x="0px" y="0px"
	 viewBox="0 0 203.4 201.2" style="enable-background:new 0 0 203.4 201.2;" xml:space="preserve">
<g>
	<path d="M80.4,100.4v85.8c0,0.3,0.3,0.6,0.6,0.5l84.8-24.7c0.2,0,0.3-0.2,0.3-0.5V124c0-0.2-0.1-0.4-0.4-0.5L81.1,99.9
		C80.8,99.8,80.4,100,80.4,100.4z"/>
	<path d="M39.1,174.1l37.1,12.6c0.6,0.2,1.1-0.2,1.1-0.8v-84.3c0-0.4-0.4-0.7-0.7-0.5l-37.5,13.6c-0.3,0.1-0.6,0.4-0.6,0.8v57.9
		C38.6,173.6,38.8,173.9,39.1,174.1z"/>
	<g>
		<path d="M106.6,18.2L48.3,60.4c-0.6,0.4-1,1.1-1,1.9v42.7c0,0.8,0.8,1.3,1.5,1l30.5-11.8c0.7-0.3,1.5-0.3,2.2-0.1l25.4,7.8
			c0.9,0.2,1.8-0.4,1.8-1.3V19.3C108.7,18.2,107.5,17.6,106.6,18.2z M54,70.8l47.4-34.9v10L54,77.2V70.8z M101.7,67
			C101.7,67.1,101.7,67.1,101.7,67L54.5,91.4c-0.1,0-0.1,0-0.1-0.1v-7.9c0,0,0-0.1,0-0.1l47.2-29.3c0.1,0,0.1,0,0.1,0.1V67z"/>
		<path d="M158.3,59.1l-44.1-42.9c-0.8-0.8-2.2-0.2-2.2,0.9v84c0,0.7,0.4,1.3,1.1,1.5l45,13.9c0.5,0.1,0.9-0.2,0.9-0.7V60.8
			C159,60.2,158.8,59.5,158.3,59.1z M152.9,101.9l-33.3-18.7V72.4l33.3,22.4V101.9z M152.9,88.1l-33.3-23.9v-9.4l33.3,27.1V88.1z
			 M152.9,76.6l-33.3-29.9v-9.9L152.9,70V76.6z"/>
	</g>
	<path d="M108.7,101.2"/>
</g>
</svg>
